<svg id="Capa_1" enable-background="new 0 0 512 512" height="512" viewBox="0 0 512 512" width="512" xmlns="http://www.w3.org/2000/svg"><g><g><g><g><g><g><g><g><g><g><g><circle cx="256" cy="256" fill="#ffe78d" r="256"/></g></g></g></g></g></g></g></g></g></g><path d="m304.315 63.197-53.737 49.062v103.522l-109.706 14.291-57.204 76.369 124.433 124.433-24.737 12.427 67.214 67.214v1.416c1.804.037 3.609.069 5.422.069 141.385 0 256-114.615 256-256 0-8.867-.452-17.628-1.332-26.263l-175.01-175.01z" fill="#ffdf5f"/><g><path d="m252.895 67.379c-8.429 1.861-17.065 5.737-24.404 13.076-15.771 15.771-16.535 43.233-15.271 59.898-10.86 14.226-19.319 33.773-25.702 54.889-30.964 7.879-95.588 32.241-105.688 104.964-1.089 7.842 8.073 11.348 12.222 4.167 32.501-56.251 81.668-51.668 81.668-51.668s-4.403 39.068-4.403 49.509c0 100.833 36.524 100.834 81.578 100.834l29.659-158.884z" fill="#585858"/><path d="m329.432 252.705s5.041 38.152 5.041 49.509c0 100.834-36.524 100.834-81.578 100.834v-335.669c18.838-4.159 36.645 1.771 36.645 1.771s33.939-28.263 46.119-14.422c0 0-43.902 10.194-52.659 75.114 14.705 13.236 25.796 35.688 33.846 60.81l.79 4.591c30.964 7.879 95.588 32.241 105.688 104.964 1.089 7.842-8.073 11.348-12.222 4.167-32.503-56.253-81.67-51.669-81.67-51.669z" fill="#3b3b3b"/><path d="m297.607 425.942 44.703 7.549-19.885 9.811-69.53-9.811z" fill="#ff78a1"/><path d="m208.183 425.942-44.703 7.549 19.885 9.811 69.53-9.811z" fill="#ff96b6"/><path d="m289.869 325.199-36.974 108.292c-40.841 0-73.948 0-73.948-108.292 0-59.808 19.314-198.513 73.948-198.513z" fill="#fff"/><path d="m326.843 325.199c0 108.292-33.108 108.292-73.948 108.292v-306.805c54.634 0 73.948 138.705 73.948 198.513z" fill="#f0f0f2"/><path d="m257.528 92.002-4.633 9.266c-5.117 0-9.266-4.148-9.266-9.266 0-5.117 4.148-9.266 9.266-9.266z" fill="#f0f0f2"/><path d="m262.161 92.002c0 5.117-4.148 9.266-9.266 9.266v-18.532c5.117 0 9.266 4.149 9.266 9.266z" fill="#d9d9dd"/></g></g></svg>